<svg width="41" height="40" viewBox="0 0 41 40" fill="none" xmlns="http://www.w3.org/2000/svg">
<path d="M22.3696 24.7411L30.5007 36.6665M18.6317 24.7411L10.5007 36.6665M23.834 22C23.834 23.8409 22.3416 25.3333 20.5007 25.3333C18.6597 25.3333 17.1673 23.8409 17.1673 22C17.1673 20.159 18.6597 18.6666 20.5007 18.6666C22.3416 18.6666 23.834 20.159 23.834 22ZM29.0815 7.55377L9.44103 12.8164C8.99023 12.9372 8.76482 12.9976 8.61614 13.1315C8.48536 13.2492 8.39522 13.4054 8.35863 13.5775C8.31703 13.7732 8.37743 13.9986 8.49822 14.4494L9.96487 19.923C10.0857 20.3738 10.1461 20.5992 10.2799 20.7479C10.3977 20.8787 10.5538 20.9688 10.726 21.0054C10.9216 21.047 11.1471 20.9866 11.5979 20.8658L31.2384 15.6031L29.0815 7.55377ZM36.8213 15.8327C35.0181 16.3158 34.1165 16.5574 33.3337 16.391C32.6452 16.2447 32.0206 15.8841 31.5496 15.361C31.0141 14.7663 30.7725 13.8647 30.2893 12.0614L30.0305 11.0955C29.5474 9.29226 29.3058 8.39065 29.4722 7.60787C29.6185 6.91933 29.9791 6.29479 30.5022 5.82376C31.0969 5.28828 31.9985 5.0467 33.8018 4.56352C34.2526 4.44273 34.478 4.38233 34.6737 4.42393C34.8458 4.46052 35.0019 4.55066 35.1197 4.68144C35.2536 4.83012 35.314 5.05552 35.4348 5.50633L37.7641 14.1997C37.8849 14.6505 37.9453 14.8759 37.9037 15.0716C37.8671 15.2437 37.777 15.3998 37.6462 15.5176C37.4975 15.6515 37.2721 15.7119 36.8213 15.8327ZM6.33686 20.55L8.59069 19.9461C9.0415 19.8253 9.2669 19.7649 9.41558 19.631C9.54636 19.5133 9.63651 19.3572 9.67309 19.185C9.71469 18.9893 9.65429 18.7639 9.5335 18.3131L8.92959 16.0593C8.8088 15.6085 8.7484 15.3831 8.61453 15.2344C8.49677 15.1036 8.34064 15.0135 8.1685 14.9769C7.97281 14.9353 7.7474 14.9957 7.2966 15.1165L5.04277 15.7204C4.59196 15.8412 4.36656 15.9016 4.21788 16.0355C4.0871 16.1532 3.99695 16.3093 3.96037 16.4815C3.91877 16.6772 3.97917 16.9026 4.09996 17.3534L4.70387 19.6072C4.82466 20.058 4.88506 20.2834 5.01893 20.4321C5.13669 20.5629 5.29282 20.653 5.46496 20.6896C5.66065 20.7312 5.88606 20.6708 6.33686 20.55Z" stroke="#3B82F6" stroke-width="3.33333" stroke-linecap="round" stroke-linejoin="round"/>
</svg>
